<?xml version="1.0" encoding="UTF-8"?>
<svg width="22px" height="22px" viewBox="0 0 22 22" version="1.1" xmlns="http://www.w3.org/2000/svg" xmlns:xlink="http://www.w3.org/1999/xlink">
    <!-- Generator: Sketch 57.1 (83088) - https://sketch.com -->
    <title>Calendar</title>
    <desc>Created with Sketch.</desc>
    <g id="Default" stroke="none" stroke-width="1" fill="none" fill-rule="evenodd">
        <g id="Добавление-задания" transform="translate(-716.000000, -759.000000)" fill="#134563" fill-rule="nonzero">
            <g id="InputLabel-Copy-4" transform="translate(555.000000, 725.000000)">
                <g id="Calendar" transform="translate(161.000000, 34.000000)">
                    <path d="M19.36,22 L2.15111111,22 C0.977777778,22 0,21.0222222 0,19.8488889 L0,4.05777778 C0,2.88444444 0.782222222,1.90666667 1.80888889,1.90666667 L2.88444444,1.90666667 L2.88444444,3.32444444 L1.80888889,3.32444444 C1.66222222,3.32444444 1.46666667,3.61777778 1.46666667,4.05777778 L1.46666667,19.8488889 C1.46666667,20.24 1.80888889,20.5822222 2.2,20.5822222 L19.4088889,20.5822222 C19.8,20.5822222 20.1422222,20.24 20.1422222,19.8488889 L20.1422222,4.05777778 C20.1422222,3.61777778 19.8977778,3.32444444 19.8,3.32444444 L18.7244444,3.32444444 L18.7244444,1.90666667 L19.8,1.90666667 C20.7777778,1.90666667 21.6088889,2.88444444 21.6088889,4.05777778 L21.6088889,19.8488889 C21.5111111,21.0222222 20.5333333,22 19.36,22" id="Fill-133"></path>
                    <path d="M5.03555556,4.79111111 C4.64444444,4.79111111 4.30222222,4.44888889 4.30222222,4.05777778 L4.30222222,1.17333333 C4.30222222,0.782222222 4.64444444,0.44 5.03555556,0.44 C5.42666667,0.44 5.76888889,0.782222222 5.76888889,1.17333333 L5.76888889,4.05777778 C5.72,4.44888889 5.42666667,4.79111111 5.03555556,4.79111111" id="Fill-134"></path>
                    <path d="M16.4755556,4.79111111 C16.0844444,4.79111111 15.7422222,4.44888889 15.7422222,4.05777778 L15.7422222,1.17333333 C15.7422222,0.782222222 16.0844444,0.44 16.4755556,0.44 C16.8666667,0.44 17.2088889,0.782222222 17.2088889,1.17333333 L17.2088889,4.05777778 C17.2088889,4.44888889 16.8666667,4.79111111 16.4755556,4.79111111" id="Fill-135"></path>
                    <polygon id="Fill-136" points="7.18666667 1.90666667 14.3244444 1.90666667 14.3244444 3.37333333 7.18666667 3.37333333"></polygon>
                    <polygon id="Fill-137" points="1.41777778 6.20888889 20.0933333 6.20888889 20.0933333 7.67555556 1.41777778 7.67555556"></polygon>
                    <polygon id="Fill-138" points="17.2088889 9.09333333 18.6266667 9.09333333 18.6266667 10.5111111 17.2088889 10.5111111"></polygon>
                    <polygon id="Fill-139" points="14.3244444 9.09333333 15.7911111 9.09333333 15.7911111 10.5111111 14.3244444 10.5111111"></polygon>
                    <polygon id="Fill-140" points="11.4888889 9.09333333 12.9066667 9.09333333 12.9066667 10.5111111 11.4888889 10.5111111"></polygon>
                    <polygon id="Fill-141" points="8.60444444 9.09333333 10.0222222 9.09333333 10.0222222 10.5111111 8.60444444 10.5111111"></polygon>
                    <polygon id="Fill-142" points="5.72 9.09333333 7.18666667 9.09333333 7.18666667 10.5111111 5.72 10.5111111"></polygon>
                    <polygon id="Fill-143" points="17.2088889 11.9777778 18.6266667 11.9777778 18.6266667 13.3955556 17.2088889 13.3955556"></polygon>
                    <polygon id="Fill-144" points="14.3244444 11.9777778 15.7911111 11.9777778 15.7911111 13.3955556 14.3244444 13.3955556"></polygon>
                    <polygon id="Fill-145" points="11.4888889 11.9777778 12.9066667 11.9777778 12.9066667 13.3955556 11.4888889 13.3955556"></polygon>
                    <polygon id="Fill-146" points="8.60444444 11.9777778 10.0222222 11.9777778 10.0222222 13.3955556 8.60444444 13.3955556"></polygon>
                    <polygon id="Fill-147" points="5.72 11.9777778 7.18666667 11.9777778 7.18666667 13.3955556 5.72 13.3955556"></polygon>
                    <polygon id="Fill-148" points="2.88444444 11.9777778 4.30222222 11.9777778 4.30222222 13.3955556 2.88444444 13.3955556"></polygon>
                    <polygon id="Fill-149" points="17.2088889 14.8133333 18.6266667 14.8133333 18.6266667 16.28 17.2088889 16.28"></polygon>
                    <polygon id="Fill-150" points="14.3244444 14.8133333 15.7911111 14.8133333 15.7911111 16.28 14.3244444 16.28"></polygon>
                    <polygon id="Fill-151" points="11.4888889 14.8133333 12.9066667 14.8133333 12.9066667 16.28 11.4888889 16.28"></polygon>
                    <polygon id="Fill-152" points="8.60444444 14.8133333 10.0222222 14.8133333 10.0222222 16.28 8.60444444 16.28"></polygon>
                    <polygon id="Fill-153" points="5.72 14.8133333 7.18666667 14.8133333 7.18666667 16.28 5.72 16.28"></polygon>
                    <polygon id="Fill-154" points="2.88444444 14.8133333 4.30222222 14.8133333 4.30222222 16.28 2.88444444 16.28"></polygon>
                    <polygon id="Fill-155" points="14.3244444 17.6977778 15.7911111 17.6977778 15.7911111 19.1155556 14.3244444 19.1155556"></polygon>
                    <polygon id="Fill-156" points="11.4888889 17.6977778 12.9066667 17.6977778 12.9066667 19.1155556 11.4888889 19.1155556"></polygon>
                    <polygon id="Fill-157" points="8.60444444 17.6977778 10.0222222 17.6977778 10.0222222 19.1155556 8.60444444 19.1155556"></polygon>
                    <polygon id="Fill-158" points="5.72 17.6977778 7.18666667 17.6977778 7.18666667 19.1155556 5.72 19.1155556"></polygon>
                    <polygon id="Fill-159" points="2.88444444 17.6977778 4.30222222 17.6977778 4.30222222 19.1155556 2.88444444 19.1155556"></polygon>
                </g>
            </g>
        </g>
    </g>
</svg>