<?xml version="1.0" encoding="UTF-8"?>
<svg width="16px" height="30px" viewBox="0 0 16 30" version="1.1" xmlns="http://www.w3.org/2000/svg" xmlns:xlink="http://www.w3.org/1999/xlink">
    <!-- Generator: Sketch 57.1 (83088) - https://sketch.com -->
    <title>Icon_3_</title>
    <desc>Created with Sketch.</desc>
    <g id="Default" stroke="none" stroke-width="1" fill="none" fill-rule="evenodd">
        <g id="Просмотр-задания" transform="translate(-915.000000, -687.000000)" fill="#000000" fill-rule="nonzero">
            <g id="attach_item" transform="translate(914.000000, 682.000000)">
                <path d="M14.5715179,11.4285714 L14.5715179,27.1428125 C14.5715179,30.2859821 12.0003571,32.8571429 8.8571875,32.8571429 C5.71408482,32.8571429 3.14292411,30.2859821 3.14292411,27.1428125 L3.14292411,10.7143304 C3.14292411,8.71444196 4.71444196,7.14285714 6.71433036,7.14285714 C8.71415179,7.14285714 10.2857366,8.71444196 10.2857366,10.7143304 L10.2857366,27.1428795 C10.2857366,27.9283036 9.64254464,28.5714286 8.85712054,28.5714286 C8.07169643,28.5714286 7.42857143,27.9283036 7.42857143,27.1428795 L7.42857143,13.5714286 L5.28571429,13.5714286 L5.28571429,27.1428795 C5.28578125,29.1427009 6.85729911,30.7142857 8.8571875,30.7142857 C10.8570759,30.7142857 12.4286607,29.1427009 12.4286607,27.1428795 L12.4286607,10.7143304 C12.4286607,7.57149554 9.8575,5 6.71433036,5 C3.57116071,5 1,7.57149554 1,10.7143304 L1,27.1428125 C1,31.4997098 4.50035714,35 8.8571875,35 C13.2140179,35 16.714375,31.4997098 16.714375,27.1428125 L16.714375,11.4285714 L14.5715179,11.4285714 Z" id="Icon_3_"></path>
            </g>
        </g>
    </g>
</svg>