<?xml version="1.0" encoding="UTF-8"?>
<svg width="35px" height="35px" viewBox="0 0 35 35" version="1.1" xmlns="http://www.w3.org/2000/svg" xmlns:xlink="http://www.w3.org/1999/xlink">
    <!-- Generator: Sketch 57.1 (83088) - https://sketch.com -->
    <title>016-email</title>
    <desc>Created with Sketch.</desc>
    <g id="Default" stroke="none" stroke-width="1" fill="none" fill-rule="evenodd">
        <g id="Профиль-пользователя" transform="translate(-914.000000, -655.000000)" fill="#000000" fill-rule="nonzero">
            <g id="016-email" transform="translate(914.000000, 655.000000)">
                <polygon id="Path" points="24.5605469 11.25 10.4394531 11.25 17.5 17.3019409"></polygon>
                <path d="M17.5,18.75 C17.3507691,18.75 17.2064209,18.6965942 17.0932007,18.5992431 L9.375,11.9836426 L9.375,23.75 L25.625,23.75 L25.625,11.9836426 L17.9067993,18.5992431 C17.7935791,18.6965942 17.6492309,18.75 17.5,18.75 Z" id="Path"></path>
                <path d="M17.5,0 C7.83508297,0 0,7.83508297 0,17.5 C0,27.164917 7.83508297,35 17.5,35 C27.164917,35 35,27.164917 35,17.5 C34.9890137,7.83966063 27.1603394,0.0109863281 17.5,0 Z M26.875,24.375 C26.875,24.7201538 26.5951538,25 26.25,25 L8.75,25 C8.40484617,25 8.125,24.7201538 8.125,24.375 L8.125,10.625 C8.125,10.2798462 8.40484617,10 8.75,10 L26.25,10 C26.5951538,10 26.875,10.2798462 26.875,10.625 L26.875,24.375 Z" id="Shape"></path>
            </g>
        </g>
    </g>
</svg>