<?xml version="1.0" encoding="UTF-8"?>
<svg width="46px" height="58px" viewBox="0 0 46 58" version="1.1" xmlns="http://www.w3.org/2000/svg" xmlns:xlink="http://www.w3.org/1999/xlink">
    <!-- Generator: Sketch 57.1 (83088) - https://sketch.com -->
    <title>Group</title>
    <desc>Created with Sketch.</desc>
    <defs>
        <linearGradient x1="0%" y1="49.9999997%" x2="86.9565217%" y2="49.9999997%" id="linearGradient-1">
            <stop stop-color="#000092" offset="0%"></stop>
            <stop stop-color="#FF00F3" offset="100%"></stop>
        </linearGradient>
    </defs>
    <g id="Default" stroke="none" stroke-width="1" fill="none" fill-rule="evenodd">
        <g id="Просмотр-задания" transform="translate(-915.000000, -596.000000)" fill-rule="nonzero">
            <g id="Group" transform="translate(915.000000, 596.000000)">
                <rect id="Rectangle" fill="#FFFFFF" x="2" y="24" width="42" height="28"></rect>
                <path d="M7.0156248,0 C3.1476248,0 0,3.14762528 0,7.01562528 L0,50.9843757 C0,54.8523757 3.1476248,58 7.0156248,58 L38.984376,58 C42.852376,58 46,54.8523757 46,50.9843757 L46,17.0859381 C46,17.0579381 45.9728,17.0358141 45.9688,17.0078141 C45.9488,16.7718141 45.883,16.5470017 45.711,16.3750017 L29.7109376,0.3750004 C29.5429376,0.2070004 29.3255616,0.1333752 29.1015624,0.1093752 C29.0095624,0.0813752 28.9281264,0 28.8281264,0 L7.0156264,0 L7.0156248,0 Z M7.0156248,2.00000048 L28,2.00000048 L28,11.1250005 C28,14.9610005 31.121124,18.0859381 34.953124,18.0859381 L44,18.0859381 L44,50.9843757 C44,53.7483757 41.744376,56.0000005 38.984376,56.0000005 L7.0156248,56.0000005 C4.2556252,56.0000005 2,53.7483757 2,50.9843757 L2,7.01562528 C2,4.25162528 4.2556252,2.00000048 7.0156248,2.00000048 Z M30.0078124,3.57812528 C33.093732,6.64403808 39.260008,12.7759997 42.585936,16.0859381 L34.953124,16.0859381 C32.221124,16.0859381 30.0078124,13.8570005 30.0078124,11.1250005 L30.0078124,3.57812528 L30.0078124,3.57812528 Z M32.734376,36.7578125 C32.466376,36.7578125 32.203624,36.8743129 32.015624,37.0703129 L26.1171876,43.3203117 L27.5703124,44.6953117 L31.75,40.2734357 L31.75,51.0468757 L33.75,51.0468757 L33.75,40.2343757 L38.093752,44.7031237 L39.531248,43.3046877 L33.460936,37.0625005 C33.268936,36.8665005 33.070376,36.7858125 32.734376,36.7578125 L32.734376,36.7578125 Z" id="Shape" fill="url(#linearGradient-1)"></path>
            </g>
        </g>
    </g>
</svg>