<?xml version="1.0" encoding="UTF-8"?>
<svg width="76px" height="82px" viewBox="0 0 76 82" version="1.1" xmlns="http://www.w3.org/2000/svg" xmlns:xlink="http://www.w3.org/1999/xlink">
    <!-- Generator: Sketch 57.1 (83088) - https://sketch.com -->
    <title>Combined Shape</title>
    <desc>Created with Sketch.</desc>
    <g id="Default" stroke="none" stroke-width="1" fill="none" fill-rule="evenodd">
        <g id="Просмотр-задания" transform="translate(-57.000000, -959.000000)" fill="#E6E6E6" fill-rule="nonzero">
            <path d="M73.98926,965.267048 C85.111534,957.966843 99.2896522,956.975426 111.339179,962.655323 C123.388706,968.33522 131.542623,979.853494 132.819332,992.998321 C133.928474,1004.19111 129.890211,1015.28385 121.822221,1023.20639 L121.822221,1023.20639 L103.938,1041 L86.129,1041 L68.1777787,1023.20639 C60.237852,1015.4096 56.2007399,1004.54246 57.1317379,993.531223 L57.180668,992.998321 C58.311187,981.73317 64.4776173,971.559625 73.98926,965.267048 Z M111.003925,972.520523 C101.306904,966.14746 88.6930956,966.14746 78.9960746,972.520523 C71.6685685,977.363253 66.9259958,985.205166 66.0767047,993.882892 C65.2329318,1002.42831 68.2999504,1010.89871 74.436297,1016.97017 L74.436297,1016.97017 L95,1037.31528 L115.563703,1016.97017 C121.725533,1010.87829 124.794664,1002.36958 123.923295,993.794435 C123.048251,985.148749 118.308613,977.34414 111.003925,972.520523 Z M95,976.943374 C106.099929,976.967697 115.092081,985.864264 115.116666,996.846201 C115.116666,1007.83823 106.110128,1016.74903 95,1016.74903 C83.8898722,1016.74903 74.883334,1007.83823 74.883334,996.846201 C74.883334,985.854173 83.8898722,976.943374 95,976.943374 Z M95,985.789075 C88.8277068,985.789075 83.8240745,990.739519 83.8240745,996.846201 C83.8240745,1002.95288 88.8277068,1007.90333 95,1007.90333 C101.172293,1007.90333 106.175926,1002.95288 106.175926,996.846201 C106.175926,990.739519 101.172293,985.789075 95,985.789075 Z" id="Combined-Shape"></path>
        </g>
    </g>
</svg>