<?xml version="1.0" encoding="UTF-8"?>
<svg width="18px" height="14px" viewBox="0 0 18 14" version="1.1" xmlns="http://www.w3.org/2000/svg" xmlns:xlink="http://www.w3.org/1999/xlink">
    <!-- Generator: Sketch 57.1 (83088) - https://sketch.com -->
    <title>icon_home</title>
    <desc>Created with Sketch.</desc>
    <g id="Default" stroke="none" stroke-width="1" fill="none" fill-rule="evenodd">
        <g id="Мои-задания" transform="translate(-351.000000, -392.000000)" fill="#989898" fill-rule="nonzero">
            <g id="task_item" transform="translate(351.000000, 228.000000)">
                <path d="M15.4308753,172.063913 L15.4308753,177.301637 C15.4308753,177.490777 15.3601654,177.654456 15.2187457,177.792673 C15.077326,177.930891 14.9098553,178 14.7163336,178 L10.4290834,178 L10.4290834,173.809821 L7.57091661,173.809821 L7.57091661,178 L3.28366644,178 C3.09014473,178 2.92267402,177.930891 2.78125431,177.792673 C2.6398346,177.654456 2.56912474,177.490777 2.56912474,177.301637 L2.56912474,172.063913 C2.56912474,172.056638 2.57098553,172.045726 2.5747071,172.031177 C2.57842867,172.016628 2.58028946,172.005716 2.58028946,171.998441 L9,166.826189 L15.4197105,171.998441 C15.4271537,172.01299 15.4308753,172.034814 15.4308753,172.063913 Z M17.9206065,171.31099 L17.2283942,172.118472 C17.1688491,172.183944 17.0906961,172.223954 16.9939352,172.238504 L16.9604411,172.238504 C16.8636802,172.238504 16.7855272,172.213042 16.7259821,172.16212 L9,165.865939 L1.27401792,172.16212 C1.18470021,172.220317 1.09538249,172.245778 1.00606478,172.238504 C0.909303928,172.223954 0.83115093,172.183944 0.771605789,172.118472 L0.0793935217,171.31099 C0.0198483804,171.238244 -0.00620261888,171.152767 0.00124052378,171.05456 C0.00868366644,170.956352 0.0496209511,170.87815 0.124052378,170.819953 L8.15148174,164.28371 C8.3896623,164.09457 8.67250172,164 9,164 C9.32749828,164 9.6103377,164.09457 9.84851826,164.28371 L12.5727085,166.509743 L12.5727085,164.381917 C12.5727085,164.280073 12.6062026,164.196415 12.6731909,164.130943 C12.7401792,164.065472 12.8257753,164.032736 12.9299793,164.032736 L15.0736044,164.032736 C15.1778084,164.032736 15.2634045,164.065472 15.3303928,164.130943 C15.3973811,164.196415 15.4308753,164.280073 15.4308753,164.381917 L15.4308753,168.833983 L17.8759476,170.819953 C17.950379,170.87815 17.9913163,170.956352 17.9987595,171.05456 C18.0062026,171.152767 17.9801516,171.238244 17.9206065,171.31099 Z" id="icon_home"></path>
            </g>
        </g>
    </g>
</svg>