<?xml version="1.0" encoding="UTF-8"?>
<svg width="16px" height="16px" viewBox="0 0 16 16" version="1.1" xmlns="http://www.w3.org/2000/svg" xmlns:xlink="http://www.w3.org/1999/xlink">
    <!-- Generator: Sketch 57.1 (83088) - https://sketch.com -->
    <title>Thumbs / Up / Outline</title>
    <desc>Created with Sketch.</desc>
    <defs>
        <path d="M7.12996191,0.00691864014 L7.2234365,0 C8.72231551,0 9.95210862,1.18653532 10.0411483,2.67890286 L10.04631,2.85240625 L10.04631,5.1475 L13.5222883,5.1475 C13.6334689,5.1466875 13.7463195,5.15446875 13.8566651,5.17140625 C14.4099393,5.25625 14.897402,5.55378125 15.2292737,6.00909375 C15.5242433,6.41384375 15.6648769,6.90024807 15.633494,7.39598847 L15.6136276,7.5821875 L14.6091984,14.2014062 C14.5336142,14.7051875 14.2798317,15.1653437 13.8947974,15.496 C13.5631963,15.7808398 13.1534576,15.953085 12.7233024,15.9916956 L12.5378685,16 L4.31245351,16 L4.30637562,15.9999714 L2.12920081,15.9999688 C1.02417187,15.9999688 0.116193883,15.1310389 0.0393281766,14.0338741 L0.0340575593,13.8829063 L0.0340575593,8.735375 C0.0340575593,7.61878533 0.893990815,6.70130813 1.97979598,6.62363826 L2.12920081,6.6183125 L3.89605756,6.618 L6.63895753,0.3838125 C6.72877181,0.179582031 6.915382,0.0388984375 7.12996191,0.00691864014 L7.2234365,0 Z M3.67205756,7.91 L2.12920081,7.9109375 C1.71394899,7.9109375 1.37013618,8.22604401 1.31969901,8.63207223 L1.31333014,8.73534375 L1.31333014,13.882875 C1.31333014,14.3024712 1.62520051,14.6498809 2.0270046,14.7008458 L2.12920081,14.7072813 L3.67205756,14.707 L3.67205756,7.91 Z M7.61660445,1.34390625 L4.95210527,7.40175 L4.95210527,14.7073438 L12.5378685,14.7073438 C12.9384897,14.7073438 13.2844021,14.4075938 13.3445849,14.0065625 L13.3445849,14.0065625 L14.3490142,7.38725 C14.3815797,7.1705 14.3284481,6.95296875 14.1992065,6.77565625 C14.0699648,6.59834375 13.8801383,6.48246875 13.6646737,6.4494375 C13.6211911,6.44278125 13.5768426,6.43975 13.532958,6.44015625 L13.532958,6.44015625 L9.4066892,6.4401875 C9.05341637,6.4401875 8.76706837,6.1508125 8.76706837,5.793875 L8.76706837,5.793875 L8.76706837,2.85240625 C8.76706837,2.1295625 8.27796658,1.52003125 7.61660445,1.34390625 L7.61660445,1.34390625 Z" id="path-1"></path>
        <rect id="path-3" x="0" y="0" width="16" height="16"></rect>
    </defs>
    <g id="Symbols" stroke="none" stroke-width="1" fill="none" fill-rule="evenodd">
        <g id="response_item" transform="translate(-285.000000, -43.000000)">
            <g id="Thumbs-/-Up-/-Outline" transform="translate(285.000000, 43.000000)">
                <mask id="mask-2" fill="white">
                    <use xlink:href="#path-1"></use>
                </mask>
                <use id="Combined-Shape" fill="#000000" fill-rule="nonzero" xlink:href="#path-1"></use>
                <g id="Black" mask="url(#mask-2)">
                    <mask id="mask-4" fill="white">
                        <use xlink:href="#path-3"></use>
                    </mask>
                    <use id="Rectangular" fill="#000000" fill-rule="evenodd" xlink:href="#path-3"></use>
                    <g id="Simple" mask="url(#mask-4)" opacity="0.100000001">
                        <rect id="Rectangular" x="0" y="0" width="16" height="16"></rect>
                    </g>
                </g>
            </g>
        </g>
    </g>
</svg>