<?xml version="1.0" encoding="UTF-8"?>
<svg width="18px" height="22px" viewBox="0 0 18 22" version="1.1" xmlns="http://www.w3.org/2000/svg" xmlns:xlink="http://www.w3.org/1999/xlink">
    <!-- Generator: Sketch 57.1 (83088) - https://sketch.com -->
    <title>Location</title>
    <desc>Created with Sketch.</desc>
    <g id="Default" stroke="none" stroke-width="1" fill="none" fill-rule="evenodd">
        <g id="Добавление-задания" transform="translate(-939.000000, -657.000000)" fill="#000000" fill-rule="nonzero">
            <g id="InputLabel-Copy-3" transform="translate(306.000000, 623.000000)">
                <g id="Location" transform="translate(633.000000, 34.000000)">
                    <path d="M17.46,8.63 C17.1744065,5.65797394 15.3504151,3.05370912 12.6549947,1.76949286 C9.95957426,0.485276607 6.78799842,0.709434521 4.3,2.36 C2.17229196,3.78274234 0.792891592,6.08296582 0.54,8.63 C0.291890297,11.1606722 1.19523,13.6687251 3,15.46 L8.3,20.77 C8.4877666,20.9593127 8.74336246,21.0657983 9.01,21.0657983 C9.27663754,21.0657983 9.5322334,20.9593127 9.72,20.77 L15,15.46 C16.80477,13.6687251 17.7081097,11.1606722 17.46,8.63 L17.46,8.63 Z M13.6,14.05 L9,18.65 L4.4,14.05 C3.02732921,12.6772523 2.34125211,10.7621065 2.53,8.83 C2.71998227,6.86797917 3.78087264,5.09493402 5.42,4 C7.58917627,2.55905993 10.4108237,2.55905993 12.58,4 C14.214023,5.09061274 15.2742568,6.85522328 15.47,8.81 C15.6649209,10.7488268 14.9783713,12.6726343 13.6,14.05 Z M9,5 C6.51471863,5 4.5,7.01471863 4.5,9.5 C4.5,11.9852814 6.51471863,14 9,14 C11.4852814,14 13.5,11.9852814 13.5,9.5 C13.4945005,7.01700015 11.4829999,5.00549947 9,5 L9,5 Z M9,12 C7.61928813,12 6.5,10.8807119 6.5,9.5 C6.5,8.11928813 7.61928813,7 9,7 C10.3807119,7 11.5,8.11928813 11.5,9.5 C11.5,10.8807119 10.3807119,12 9,12 L9,12 Z" id="Shape"></path>
                </g>
            </g>
        </g>
    </g>
</svg>