<?xml version="1.0" encoding="UTF-8"?>
<svg width="35px" height="35px" viewBox="0 0 35 35" version="1.1" xmlns="http://www.w3.org/2000/svg" xmlns:xlink="http://www.w3.org/1999/xlink">
    <!-- Generator: Sketch 57.1 (83088) - https://sketch.com -->
    <title>031-phone call</title>
    <desc>Created with Sketch.</desc>
    <g id="Default" stroke="none" stroke-width="1" fill="none" fill-rule="evenodd">
        <g id="Профиль-пользователя" transform="translate(-914.000000, -600.000000)" fill="#000000" fill-rule="nonzero">
            <g id="031-phone-call" transform="translate(914.000000, 600.000000)">
                <path d="M20.895681,19.9042521 L19.5589993,22.4638068 C19.4126807,22.7442391 19.0801106,22.8710433 18.7841202,22.7591752 C15.7659935,21.6167182 13.3837432,19.2339578 12.242153,16.2156524 C12.1302802,15.9196744 12.2570897,15.5871182 12.5375337,15.4408057 L15.0971954,14.1047894 L14.2900043,9.53160859 C13.3233868,8.98750891 12.1406445,8.99756788 11.1831719,9.55751816 C10.2256993,10.1174684 9.63737647,11.1434849 9.63768116,12.2527167 C9.64591172,19.4893951 15.5108504,25.3540887 22.7478311,25.3623188 C23.8564995,25.3623188 24.8822541,24.7743254 25.4422278,23.8171976 C26.0022014,22.8603747 26.0125657,21.6779866 25.4690529,20.7114095 L20.895681,19.9042521 Z" id="Path"></path>
                <path d="M17.5,0 C7.83508297,0 0,7.83508297 0,17.5 C0,27.164917 7.83508297,35 17.5,35 C27.164917,35 35,27.164917 35,17.5 C34.9890137,7.83966063 27.1603394,0.0109863281 17.5,0 Z M22.5,26.875 C14.5645141,26.8661499 8.13385008,20.4354859 8.125,12.5 C8.12530516,10.881958 9.01855469,9.39605711 10.4473877,8.63677977 C11.8765259,7.87780766 13.6077881,7.96936031 14.9487305,8.87512203 C15.0891113,8.96972656 15.1849366,9.11743164 15.2142334,9.28436281 L16.1517334,14.588623 C16.1990356,14.8571777 16.0671997,15.125122 15.8255005,15.2511597 L13.3630371,16.5374756 C14.3701172,18.8140869 16.1889648,20.6338501 18.4649658,21.6418457 L19.750061,19.1763305 C19.8760986,18.9346313 20.144043,18.8027954 20.4125977,18.8500977 L25.7174683,19.7875977 C25.8840942,19.8168945 26.0314941,19.9124145 26.1260986,20.0524902 C27.03125,21.3934327 27.1224976,23.1246948 26.3632202,24.5532227 C25.6036377,25.9820556 24.118042,26.875 22.5,26.875 Z" id="Shape"></path>
            </g>
        </g>
    </g>
</svg>