<?xml version="1.0" encoding="UTF-8"?>
<svg width="22px" height="22px" viewBox="0 0 22 22" version="1.1" xmlns="http://www.w3.org/2000/svg" xmlns:xlink="http://www.w3.org/1999/xlink">
    <!-- Generator: Sketch 57.1 (83088) - https://sketch.com -->
    <title>rouble</title>
    <desc>Created with Sketch.</desc>
    <g id="Default" stroke="none" stroke-width="1" fill="none" fill-rule="evenodd">
        <g id="Добавление-задания" transform="translate(-470.000000, -759.000000)" fill="#474747" fill-rule="nonzero">
            <g id="InputLabel" transform="translate(306.000000, 725.000000)">
                <g id="rouble" transform="translate(164.000000, 34.000000)">
                    <path d="M11,0.0106140351 C4.93070175,0.0106140351 0.0106140351,4.93070175 0.0106140351,11.0000482 C0.0106140351,17.0692982 4.93070175,21.989386 11,21.989386 C17.0692982,21.989386 21.989386,17.0692982 21.989386,11.0000482 C21.989386,4.93070175 17.0692982,0.0106140351 11,0.0106140351 Z M11,19.7572061 C6.16357018,19.7572061 2.24279386,15.8364781 2.24279386,11.0000482 C2.24279386,6.16352193 6.16357018,2.24279386 11,2.24279386 C15.8364298,2.24279386 19.7572061,6.16352193 19.7572061,11.0000482 C19.7572061,15.8364781 15.8364298,19.7572061 11,19.7572061 Z" id="Shape"></path>
                    <path d="M14.9153246,11.9407895 L9.81798246,11.9407895 L9.81798246,11.3618421 L11.7168816,11.3618421 C12.9616667,11.3618421 13.8985965,11.0650351 14.527864,10.538386 C15.1570351,10.0117851 15.4716447,9.22113596 15.4716447,8.19972807 C15.4716447,7.72098684 15.3940175,7.28175877 15.2391009,6.89878509 C15.0839912,6.5158114 14.8570921,6.18793421 14.5585965,5.92345175 C14.2599079,5.65906579 13.9054956,5.49821491 13.4951184,5.38416228 C13.0801096,5.26567105 12.4874123,5.23469737 11.7169298,5.23469737 L9.11132895,5.23469737 C8.66442982,5.23469737 8.32154825,5.30002193 8.11635965,5.49150877 C7.91117105,5.68299561 7.79171491,5.97174561 7.79171491,6.41854825 L7.79171491,9.86622807 L6.8414693,9.86622807 C6.68187281,9.86622807 6.5372807,9.91741667 6.5372807,10.0447851 L6.5372807,10.9664211 C6.5372807,11.093886 6.68192105,11.2653509 6.8414693,11.2653509 L7.79166667,11.2653509 L7.79166667,11.9407895 L6.84142105,11.9407895 C6.68182456,11.9407895 6.5372807,11.9919781 6.5372807,12.1193465 L6.5372807,13.0409825 C6.5372807,13.1684474 6.68187281,13.3399123 6.84142105,13.3399123 L7.79166667,13.3399123 L7.79166667,15.5614298 C7.79166667,15.9626886 7.90195614,16.2670219 8.08895614,16.4744781 C8.27585965,16.681886 8.5305,16.7856623 8.83608772,16.7856623 C9.12782895,16.7856623 9.35439035,16.6806798 9.54587719,16.4710526 C9.73741228,16.2613772 9.81798246,15.9536184 9.81798246,15.5477763 L9.81798246,13.3399123 L14.9153246,13.3399123 C15.0749693,13.3399123 15.1732456,13.1683991 15.1732456,13.0409825 L15.1732456,12.1193465 C15.1732456,11.9919781 15.0749693,11.9407895 14.9153246,11.9407895 Z M9.81798246,6.73026316 L11.2245351,6.73026316 C12.1317939,6.73026316 12.7313421,6.86279386 13.0231798,7.15911842 C13.2830789,7.43730263 13.4130044,7.78964035 13.4130044,8.23185965 C13.4130044,8.60113158 13.3285746,8.89591228 13.1600044,9.12382456 C12.9912412,9.35188158 12.74625,9.54163158 12.4248377,9.64188596 C12.1033289,9.74223684 11.7032281,9.81798246 11.2245351,9.81798246 L9.81798246,9.81798246 L9.81798246,6.73026316 Z" id="Shape"></path>
                </g>
            </g>
        </g>
    </g>
</svg>