<?xml version="1.0" encoding="UTF-8"?>
<svg width="35px" height="35px" viewBox="0 0 35 35" version="1.1" xmlns="http://www.w3.org/2000/svg" xmlns:xlink="http://www.w3.org/1999/xlink">
    <!-- Generator: Sketch 57.1 (83088) - https://sketch.com -->
    <title>040-send</title>
    <desc>Created with Sketch.</desc>
    <g id="Default" stroke="none" stroke-width="1" fill="none" fill-rule="evenodd">
        <g id="Профиль-пользователя" transform="translate(-914.000000, -710.000000)" fill="#000000" fill-rule="nonzero">
            <g id="040-send" transform="translate(914.000000, 710.000000)">
                <polygon id="Path" points="9.54376219 16.1843872 16.0681152 18.0480957 22.5930786 11.5231323"></polygon>
                <polygon id="Path" points="18.8156128 25.4562378 23.4768677 12.4069214 16.9519043 18.9318848"></polygon>
                <path d="M17.5,0 C7.83508297,0 0,7.83508297 0,17.5 C0,27.164917 7.83508297,35 17.5,35 C27.164917,35 35,27.164917 35,17.5 C34.9890137,7.83966063 27.1603394,0.0109863281 17.5,0 Z M25.5880738,10.2099609 L19.3380738,27.7099609 C19.2492676,27.9586792 19.013977,28.1246948 18.75,28.125 L18.7298584,28.125 C18.458252,28.1164551 18.2232666,27.9333496 18.1488038,27.671814 L16.5411377,22.0437622 L12.0950317,23.7112427 C12.0245361,23.7368774 11.9500733,23.75 11.875,23.75 C11.6699219,23.7503052 11.4776611,23.6495972 11.3607788,23.4811402 C11.2438965,23.312378 11.217041,23.0969238 11.2893677,22.9049683 L12.9568481,18.4588623 L7.32879641,16.8511963 C7.0690918,16.7758179 6.88751219,16.541748 6.87866211,16.2716675 C6.87011719,16.0012817 7.03582766,15.7562256 7.29003906,15.6637573 L24.7900391,9.41375734 C25.0170898,9.33319094 25.2706909,9.39025875 25.440979,9.56085203 C25.6115723,9.73114016 25.6689453,9.98474125 25.5880738,10.211792 L25.5880738,10.2099609 Z" id="Shape"></path>
                <polygon id="Path" points="14.163208 18.8037109 12.9431152 22.0568848 16.1962891 20.836792 15.7443237 19.2556763"></polygon>
            </g>
        </g>
    </g>
</svg>