<?xml version="1.0" encoding="UTF-8"?>
<svg width="48px" height="53px" viewBox="0 0 48 53" version="1.1" xmlns="http://www.w3.org/2000/svg" xmlns:xlink="http://www.w3.org/1999/xlink">
    <!-- Generator: Sketch 57.1 (83088) - https://sketch.com -->
    <title>Upload</title>
    <desc>Created with Sketch.</desc>
    <g id="Default" stroke="none" stroke-width="1" fill="none" fill-rule="evenodd">
        <g id="Добавление-задания" transform="translate(-616.000000, -888.000000)" fill="#989898" fill-rule="nonzero">
            <g id="Upload" transform="translate(616.000000, 888.000000)">
                <path d="M17.8933333,12.4932436 L21.3333333,9.04924204 L21.3333333,39.7538403 C21.3333333,41.2169707 22.5272407,42.4030722 24,42.4030722 C25.4727593,42.4030722 26.6666667,41.2169707 26.6666667,39.7538403 L26.6666667,9.04924204 L30.1066667,12.4932436 C30.6073776,12.9947767 31.2889666,13.2768819 32,13.2768819 C32.7110334,13.2768819 33.3926224,12.9947767 33.8933333,12.4932436 C34.3981671,11.9958063 34.6821289,11.3186736 34.6821289,10.6122889 C34.6821289,9.90590421 34.3981671,9.22877148 33.8933333,8.7313342 L25.8933333,0.78363837 C25.3926224,0.282105248 24.7110334,0 24,0 C23.2889666,0 22.6073776,0.282105248 22.1066667,0.78363837 L14.1066667,8.7313342 C13.0610076,9.7701568 13.0610076,11.4544209 14.1066667,12.4932435 C15.1523258,13.5320661 16.8476742,13.5320661 17.8933333,12.4932436 L17.8933333,12.4932436 Z M40,18.5599847 L34.6666667,18.5599847 C33.1939073,18.5599847 32,19.7460863 32,21.2092167 C32,22.6723471 33.1939073,23.8584486 34.6666667,23.8584486 L40,23.8584486 C41.4727593,23.8584486 42.6666667,25.0445502 42.6666667,26.5076806 L42.6666667,45.0523042 C42.6666667,46.5154346 41.4727593,47.7015361 40,47.7015361 L8,47.7015361 C6.52724067,47.7015361 5.33333333,46.5154346 5.33333333,45.0523042 L5.33333333,26.5076806 C5.33333333,25.0445502 6.52724067,23.8584486 8,23.8584486 L13.3333333,23.8584486 C14.8060927,23.8584486 16,22.6723471 16,21.2092167 C16,19.7460863 14.8060927,18.5599847 13.3333333,18.5599847 L8,18.5599847 C3.581722,18.5599847 0,22.1182893 0,26.5076806 L0,45.0523042 C0,49.4416954 3.581722,53 8,53 L40,53 C44.418278,53 48,49.4416954 48,45.0523042 L48,26.5076806 C48,22.1182893 44.418278,18.5599847 40,18.5599847 Z" id="Shape"></path>
            </g>
        </g>
    </g>
</svg>